<svg xmlns="http://www.w3.org/2000/svg" xmlns:xlink="http://www.w3.org/1999/xlink" viewBox="0 0 231 231.34"><defs><style>.cls-1{font-size:100px;font-family:RobotoMonoForPowerline-Regular, Roboto Mono for Powerline;}.cls-2{fill:url(#linear-gradient);}.cls-3{fill:none;stroke-miterlimit:10;stroke-width:10px;stroke:url(#linear-gradient-4);}.cls-4{fill:url(#linear-gradient-5);}</style>="#e94560"/</defs><g id="Layer_2" data-name="Layer 2"><g id="SSH_Logo" data-name="SSH Logo"><text class="cls-1" transform="translate(27.88 188.31)">SSH</text><path fill="#1f2937" class="cls-2" d="M73.59,170.34a9.75,9.75,0,0,0-1.49-5.51A13.34,13.34,0,0,0,68.26,161a25,25,0,0,0-5.15-2.56c-1.87-.69-3.67-1.3-5.39-1.86a80,80,0,0,1-7.65-2.93,33.75,33.75,0,0,1-7.08-4.2,21.18,21.18,0,0,1-5.22-5.88,15.27,15.27,0,0,1-2-8,16.52,16.52,0,0,1,2-8.21,19.78,19.78,0,0,1,5.3-6.1,23.75,23.75,0,0,1,7.42-3.78,27.7,27.7,0,0,1,8.35-1.3,26.16,26.16,0,0,1,8.93,1.54,24.81,24.81,0,0,1,7.62,4.32,21,21,0,0,1,5.32,6.74,20.06,20.06,0,0,1,2.1,8.84H73.54A19.63,19.63,0,0,0,72,132.09a13.71,13.71,0,0,0-3-4.32A12.85,12.85,0,0,0,64.63,125a15.77,15.77,0,0,0-5.79-1,17.53,17.53,0,0,0-5.05.73,13.57,13.57,0,0,0-4.4,2.2,10.94,10.94,0,0,0-3.08,3.61,10.46,10.46,0,0,0-1.14,5,9,9,0,0,0,1.56,5.2,13.57,13.57,0,0,0,3.83,3.59,25.73,25.73,0,0,0,5,2.44q2.71,1,5.1,1.71,2.64.83,5.33,1.88a44.32,44.32,0,0,1,5.17,2.42,32.43,32.43,0,0,1,4.64,3.07,20.91,20.91,0,0,1,3.76,3.88A17.15,17.15,0,0,1,83,170.25a16.07,16.07,0,0,1-2.12,8.35,19.25,19.25,0,0,1-5.5,5.93,24.72,24.72,0,0,1-7.62,3.56,31.08,31.08,0,0,1-8.49,1.2A30,30,0,0,1,50,187.82a26.41,26.41,0,0,1-8.13-4.22A22,22,0,0,1,36,176.86a19.25,19.25,0,0,1-2.4-9.06h9.23a17.38,17.38,0,0,0,1.81,5.89A14.22,14.22,0,0,0,48.19,178a14.8,14.8,0,0,0,5,2.69,20,20,0,0,0,6.13.9,20.77,20.77,0,0,0,5.2-.66A13.93,13.93,0,0,0,69,178.91a11.35,11.35,0,0,0,3.28-3.51A9.75,9.75,0,0,0,73.59,170.34Z"/><path class="cls-2" d="M133.6,170.34a9.75,9.75,0,0,0-1.49-5.51,13.34,13.34,0,0,0-3.84-3.79,25,25,0,0,0-5.15-2.56c-1.87-.69-3.67-1.3-5.39-1.86a80,80,0,0,1-7.65-2.93,33.75,33.75,0,0,1-7.08-4.2,21.18,21.18,0,0,1-5.22-5.88,15.27,15.27,0,0,1-2-8,16.52,16.52,0,0,1,2-8.21,19.78,19.78,0,0,1,5.3-6.1,23.75,23.75,0,0,1,7.42-3.78,27.7,27.7,0,0,1,8.35-1.3,26.26,26.26,0,0,1,8.94,1.54,24.87,24.87,0,0,1,7.61,4.32,21,21,0,0,1,5.32,6.74,20.06,20.06,0,0,1,2.1,8.84h-9.27a19.63,19.63,0,0,0-1.52-5.59,13.71,13.71,0,0,0-3-4.32,12.8,12.8,0,0,0-4.42-2.81,15.68,15.68,0,0,0-5.78-1,17.64,17.64,0,0,0-5.06.73,13.62,13.62,0,0,0-4.39,2.2,11.06,11.06,0,0,0-3.08,3.61,10.46,10.46,0,0,0-1.14,5,9,9,0,0,0,1.56,5.2,13.57,13.57,0,0,0,3.83,3.59,25.46,25.46,0,0,0,5,2.44q2.72,1,5.11,1.71c1.75.55,3.53,1.18,5.32,1.88a44.32,44.32,0,0,1,5.17,2.42,32.43,32.43,0,0,1,4.64,3.07,20.91,20.91,0,0,1,3.76,3.88A17.15,17.15,0,0,1,143,170.25a16,16,0,0,1-2.13,8.35,19.09,19.09,0,0,1-5.49,5.93,24.77,24.77,0,0,1-7.61,3.56,31.21,31.21,0,0,1-8.5,1.2,30,30,0,0,1-9.28-1.47,26.41,26.41,0,0,1-8.13-4.22,22,22,0,0,1-5.83-6.74,19.25,19.25,0,0,1-2.4-9.06h9.23a17.38,17.38,0,0,0,1.81,5.89,14.1,14.1,0,0,0,3.52,4.34,14.66,14.66,0,0,0,5,2.69,20,20,0,0,0,6.13.9,20.77,20.77,0,0,0,5.2-.66,13.93,13.93,0,0,0,4.56-2.05,11.35,11.35,0,0,0,3.28-3.51A9.75,9.75,0,0,0,133.6,170.34Z"/><path class="cls-2" d="M201,188.31h-8.55V155.45H163.28v32.86h-8.49V117.22h8.49v30.56h29.15V117.22H201Z"/><rect class="cls-3" x="5" y="5.34" width="221" height="221" rx="15"/><text class="cls-1" transform="translate(30.2 85.55)">&gt;_&lt;</text><path class="cls-4" d="M38.89,41.16V31.84L82,50.29v7.13L38.89,75.93V66.55L70.48,54.64l2.93-.83-2.93-.93Z"/><path class="cls-4" d="M142.55,92.92H97.77V85.55h44.78Z"/><path class="cls-4" d="M170,53.17l-2.59.83,2.59.88,29.88,11.53V76l-41.4-18.51V50.34l41.4-18.46v9.58Z"/></g></g></svg>